<svg version="1.1" id="Layer_1" xmlns="http://www.w3.org/2000/svg" xmlns:xlink="http://www.w3.org/1999/xlink" x="0px" y="0px"
	 width="100%" viewBox="0 0 1000 2147" enable-background="new 0 0 1000 2147" xml:space="preserve">
<path fill="#0080FF" opacity="1.000000" stroke="none" 
	d="
M1.000000,660.000000 
	C1.000000,440.000000 1.000000,220.500000 1.000000,1.000000 
	C334.333344,1.000000 667.666687,1.000000 1001.000000,1.000000 
	C1001.000000,716.666687 1001.000000,1432.333374 1001.000000,2148.000000 
	C667.666687,2148.000000 334.333344,2148.000000 1.000000,2148.000000 
	C1.000000,1652.166626 1.000000,1156.333374 1.000000,660.000000 
M976.000122,1082.500000 
	C976.000122,730.748230 976.000122,378.996521 976.000122,27.384418 
	C658.932129,27.384418 342.543457,27.384418 26.251326,27.384418 
	C26.251326,487.039032 26.251326,946.308960 26.251326,1405.703613 
	C342.891571,1405.703613 659.280212,1405.703613 976.000122,1405.703613 
	C976.000122,1298.104980 976.000122,1190.802490 976.000122,1082.500000 
z"/>
<path fill="#000000" opacity="1.000000" stroke="none" 
	d="
M976.000122,1083.000000 
	C976.000122,1190.802490 976.000122,1298.104980 976.000122,1405.703613 
	C659.280212,1405.703613 342.891571,1405.703613 26.251326,1405.703613 
	C26.251326,946.308960 26.251326,487.039032 26.251326,27.384418 
	C342.543457,27.384418 658.932129,27.384418 976.000122,27.384418 
	C976.000122,378.996521 976.000122,730.748230 976.000122,1083.000000 
M166.500000,1296.000000 
	C268.661499,1296.000000 370.823059,1296.065674 472.984344,1295.912231 
	C485.012573,1295.894165 497.074310,1295.046509 509.058014,1293.919312 
	C526.659546,1292.263794 544.380310,1290.962769 561.729675,1287.769165 
	C583.432556,1283.774048 605.032104,1278.802490 626.278015,1272.834473 
	C659.998596,1263.362305 691.533447,1248.528931 720.865723,1229.435547 
	C746.179382,1212.958130 768.904724,1193.256104 788.902466,1170.537109 
	C792.796204,1166.113525 796.640198,1161.587769 799.977234,1156.743896 
	C808.388977,1144.533447 816.921936,1132.372314 824.627136,1119.717163 
	C835.502014,1101.855835 843.804504,1082.646362 849.721436,1062.653442 
	C854.457642,1046.650635 857.944824,1030.209717 860.894531,1013.767395 
	C863.404785,999.773987 864.784241,985.533447 865.854675,971.341125 
	C866.606812,961.370178 866.123840,951.294739 865.958435,941.269714 
	C865.838501,934.002869 865.809021,926.682312 864.899292,919.492004 
	C863.264526,906.570312 861.679199,893.577942 858.872009,880.880676 
	C849.635803,839.103760 829.798035,802.637573 801.307739,770.957214 
	C785.850525,753.769409 768.287476,738.802002 748.969299,726.003723 
	C726.369202,711.031250 702.167419,699.187317 676.684509,690.083984 
	C648.804688,680.124451 620.183289,672.902405 590.134827,668.600708 
	C593.550110,667.980652 596.252869,667.578247 598.915222,666.992249 
	C615.078491,663.435059 631.390076,660.419983 647.351990,656.111694 
	C670.353333,649.903320 692.014526,640.255066 712.425842,627.901428 
	C735.757690,613.780212 755.946045,595.921448 773.211609,574.955139 
	C785.134460,560.476685 794.612976,544.353943 802.092346,527.014465 
	C812.885315,501.993103 818.574402,475.787109 819.793945,448.796265 
	C820.889526,424.549316 819.860107,400.296326 816.194580,376.142914 
	C813.647827,359.361115 810.220520,342.858734 805.237061,326.695648 
	C797.332764,301.059052 785.771667,277.227722 770.158569,255.265823 
	C756.962036,236.703018 741.447815,220.517426 723.785461,206.290192 
	C698.275452,185.741531 669.452209,171.367294 638.575745,160.886154 
	C611.082275,151.553421 582.950867,145.021545 554.046204,142.002838 
	C537.572021,140.282364 521.112610,138.309067 504.598297,137.120071 
	C491.876160,136.204117 479.078979,136.051102 466.314819,136.041977 
	C357.819977,135.964447 249.325027,135.997635 140.830109,135.997635 
	C139.049850,135.997635 137.269592,135.997635 135.293243,135.997635 
	C135.293243,522.936035 135.293243,909.304932 135.293243,1296.000000 
	C145.558304,1296.000000 155.529144,1296.000000 166.500000,1296.000000 
z"/>
<path fill="#0080FF" opacity="1.000000" stroke="none" 
	d="
M166.000000,1296.000000 
	C155.529144,1296.000000 145.558304,1296.000000 135.293243,1296.000000 
	C135.293243,909.304932 135.293243,522.936035 135.293243,135.997635 
	C137.269592,135.997635 139.049850,135.997635 140.830109,135.997635 
	C249.325027,135.997635 357.819977,135.964447 466.314819,136.041977 
	C479.078979,136.051102 491.876160,136.204117 504.598297,137.120071 
	C521.112610,138.309067 537.572021,140.282364 554.046204,142.002838 
	C582.950867,145.021545 611.082275,151.553421 638.575745,160.886154 
	C669.452209,171.367294 698.275452,185.741531 723.785461,206.290192 
	C741.447815,220.517426 756.962036,236.703018 770.158569,255.265823 
	C785.771667,277.227722 797.332764,301.059052 805.237061,326.695648 
	C810.220520,342.858734 813.647827,359.361115 816.194580,376.142914 
	C819.860107,400.296326 820.889526,424.549316 819.793945,448.796265 
	C818.574402,475.787109 812.885315,501.993103 802.092346,527.014465 
	C794.612976,544.353943 785.134460,560.476685 773.211609,574.955139 
	C755.946045,595.921448 735.757690,613.780212 712.425842,627.901428 
	C692.014526,640.255066 670.353333,649.903320 647.351990,656.111694 
	C631.390076,660.419983 615.078491,663.435059 598.915222,666.992249 
	C596.252869,667.578247 593.550110,667.980652 590.134827,668.600708 
	C620.183289,672.902405 648.804688,680.124451 676.684509,690.083984 
	C702.167419,699.187317 726.369202,711.031250 748.969299,726.003723 
	C768.287476,738.802002 785.850525,753.769409 801.307739,770.957214 
	C829.798035,802.637573 849.635803,839.103760 858.872009,880.880676 
	C861.679199,893.577942 863.264526,906.570312 864.899292,919.492004 
	C865.809021,926.682312 865.838501,934.002869 865.958435,941.269714 
	C866.123840,951.294739 866.606812,961.370178 865.854675,971.341125 
	C864.784241,985.533447 863.404785,999.773987 860.894531,1013.767395 
	C857.944824,1030.209717 854.457642,1046.650635 849.721436,1062.653442 
	C843.804504,1082.646362 835.502014,1101.855835 824.627136,1119.717163 
	C816.921936,1132.372314 808.388977,1144.533447 799.977234,1156.743896 
	C796.640198,1161.587769 792.796204,1166.113525 788.902466,1170.537109 
	C768.904724,1193.256104 746.179382,1212.958130 720.865723,1229.435547 
	C691.533447,1248.528931 659.998596,1263.362305 626.278015,1272.834473 
	C605.032104,1278.802490 583.432556,1283.774048 561.729675,1287.769165 
	C544.380310,1290.962769 526.659546,1292.263794 509.058014,1293.919312 
	C497.074310,1295.046509 485.012573,1295.894165 472.984344,1295.912231 
	C370.823059,1296.065674 268.661499,1296.000000 166.000000,1296.000000 
M640.035461,1146.480347 
	C658.020569,1134.971069 672.965088,1120.002319 686.448792,1103.749634 
	C700.114807,1087.277344 710.814819,1068.808594 719.065857,1048.940063 
	C728.785889,1025.533813 734.292419,1001.062378 735.719727,975.968811 
	C736.851868,956.066040 736.695129,936.030457 733.171387,916.122009 
	C729.981506,898.099976 725.393188,880.564941 717.893372,863.948853 
	C703.560364,832.193604 682.643433,805.429260 655.277954,783.758545 
	C636.092224,768.565430 614.800537,757.343567 591.870422,748.866211 
	C559.445007,736.878418 525.707581,731.832947 491.522675,729.092957 
	C480.308044,728.194031 469.010529,728.062378 457.750183,728.045227 
	C395.600739,727.950684 333.451080,728.000000 271.301514,728.000000 
	C269.682312,728.000000 268.063110,728.000000 266.239685,728.000000 
	C266.239685,881.500366 266.239685,1034.527832 266.239685,1188.000000 
	C268.262177,1188.000000 270.051605,1188.000000 271.841034,1188.000000 
	C303.665619,1188.000000 335.490753,1188.120605 367.314667,1187.971802 
	C415.566498,1187.746216 463.821747,1187.601685 512.065979,1186.826172 
	C525.454102,1186.611084 539.005981,1185.298218 552.138611,1182.729614 
	C583.518250,1176.591675 613.140869,1165.634521 640.035461,1146.480347 
M688.000000,398.568207 
	C686.225281,389.137421 685.158264,379.505585 682.546265,370.312683 
	C673.866150,339.763428 658.500244,313.346436 633.543518,292.933044 
	C617.332520,279.673279 599.286133,269.963318 579.673401,262.905975 
	C564.503967,257.447479 549.111206,252.876633 533.051941,250.964554 
	C515.662781,248.894135 498.269409,245.435577 480.852570,245.271561 
	C411.046539,244.614182 341.230652,244.999832 271.418427,244.999771 
	C269.669312,244.999771 267.920197,244.999771 266.379456,244.999771 
	C266.379456,371.107727 266.379456,496.471771 266.379456,622.000000 
	C281.247253,622.000000 295.736389,622.071228 310.224609,621.987305 
	C362.140015,621.686340 414.056030,621.427856 465.969513,620.917786 
	C476.164490,620.817688 486.400757,620.098267 496.524353,618.883911 
	C507.015320,617.625549 517.636475,616.281250 527.760620,613.418274 
	C541.916199,609.415283 555.860962,604.466309 569.543640,599.034729 
	C595.081360,588.897339 618.112793,574.372437 638.393860,555.900085 
	C655.263489,540.534912 668.270691,522.181519 677.054749,500.929077 
	C685.257446,481.083069 689.390686,460.361725 689.826477,439.045654 
	C690.095825,425.875549 688.666870,412.670746 688.000000,398.568207 
z"/>
<path fill="#000000" opacity="1.000000" stroke="none" 
	d="
M639.772949,1146.737061 
	C613.140869,1165.634521 583.518250,1176.591675 552.138611,1182.729614 
	C539.005981,1185.298218 525.454102,1186.611084 512.065979,1186.826172 
	C463.821747,1187.601685 415.566498,1187.746216 367.314667,1187.971802 
	C335.490753,1188.120605 303.665619,1188.000000 271.841034,1188.000000 
	C270.051605,1188.000000 268.262177,1188.000000 266.239685,1188.000000 
	C266.239685,1034.527832 266.239685,881.500366 266.239685,728.000000 
	C268.063110,728.000000 269.682312,728.000000 271.301514,728.000000 
	C333.451080,728.000000 395.600739,727.950684 457.750183,728.045227 
	C469.010529,728.062378 480.308044,728.194031 491.522675,729.092957 
	C525.707581,731.832947 559.445007,736.878418 591.870422,748.866211 
	C614.800537,757.343567 636.092224,768.565430 655.277954,783.758545 
	C682.643433,805.429260 703.560364,832.193604 717.893372,863.948853 
	C725.393188,880.564941 729.981506,898.099976 733.171387,916.122009 
	C736.695129,936.030457 736.851868,956.066040 735.719727,975.968811 
	C734.292419,1001.062378 728.785889,1025.533813 719.065857,1048.940063 
	C710.814819,1068.808594 700.114807,1087.277344 686.448792,1103.749634 
	C672.965088,1120.002319 658.020569,1134.971069 639.772949,1146.737061 
z"/>
<path fill="#000000" opacity="1.000000" stroke="none" 
	d="
M688.000122,399.024841 
	C688.666870,412.670746 690.095825,425.875549 689.826477,439.045654 
	C689.390686,460.361725 685.257446,481.083069 677.054749,500.929077 
	C668.270691,522.181519 655.263489,540.534912 638.393860,555.900085 
	C618.112793,574.372437 595.081360,588.897339 569.543640,599.034729 
	C555.860962,604.466309 541.916199,609.415283 527.760620,613.418274 
	C517.636475,616.281250 507.015320,617.625549 496.524353,618.883911 
	C486.400757,620.098267 476.164490,620.817688 465.969513,620.917786 
	C414.056030,621.427856 362.140015,621.686340 310.224609,621.987305 
	C295.736389,622.071228 281.247253,622.000000 266.379456,622.000000 
	C266.379456,496.471771 266.379456,371.107727 266.379456,244.999771 
	C267.920197,244.999771 269.669312,244.999771 271.418427,244.999771 
	C341.230652,244.999832 411.046539,244.614182 480.852570,245.271561 
	C498.269409,245.435577 515.662781,248.894135 533.051941,250.964554 
	C549.111206,252.876633 564.503967,257.447479 579.673401,262.905975 
	C599.286133,269.963318 617.332520,279.673279 633.543518,292.933044 
	C658.500244,313.346436 673.866150,339.763428 682.546265,370.312683 
	C685.158264,379.505585 686.225281,389.137421 688.000122,399.024841 
z"/>
</svg>